# xmcd
#
# Track frame offsets:
#	150
#	23817
#	44280
#	62856
#	81296
#	98900
#
# Disc length: 1563 seconds
#
# Revision: 1177784647
# Processed by: cddbd v1.5.2PL0 Copyright (c) Steve Scherf et al.
# Submitted via: EZCDAudioConverter 8.0.2.1
#
DISCID=47061906
DTITLE=Thủy Tiên, V.Music - Nếu Mai Rời Xa
DYEAR=2011
DGENRE=World Pop
TTITLE0=Thủy Tiên, V.Music - Nếu Mai Rời Xa
TTITLE1=Thủy Tiên - Nơi đây mình em
TTITLE2=Nhóm V.Music - Lỗi lầm thược về anh
TTITLE3=Nhóm V.Music - Chạm vào hơi thở
TTITLE4=Thủy Tiên - Yêu làm chi
TTITLE5=Nhóm V.Music - Ký anh và em (Remix)
EXTD=
EXTT0=
EXTT1=
EXTT2=
EXTT3=
EXTT4=
EXTT5=
PLAYORDER=
